<?xml version="1.0" standalone="no"?>
<!DOCTYPE svg PUBLIC "-//W3C//DTD SVG 20010904//EN"
 "http://www.w3.org/TR/2001/REC-SVG-20010904/DTD/svg10.dtd">
<svg version="1.0" xmlns="http://www.w3.org/2000/svg"
 width="1280.000000pt" height="1280.000000pt" viewBox="0 0 1280.000000 1280.000000"
 preserveAspectRatio="xMidYMid meet">
<metadata>
Created by potrace 1.15, written by Peter Selinger 2001-2017
</metadata>
<g transform="translate(0.000000,1280.000000) scale(0.100000,-0.100000)"
fill="#000000" stroke="none">
<path d="M5585 7494 c-99 -30 -238 -73 -310 -95 -71 -22 -184 -49 -250 -60
-120 -20 -275 -65 -275 -79 0 -4 35 -9 78 -11 85 -4 120 -22 166 -82 44 -57
77 -195 87 -362 6 -82 19 -283 30 -445 24 -342 25 -698 9 -2070 -10 -823 -15
-934 -46 -1090 -34 -168 -123 -384 -215 -522 -22 -35 -34 -60 -28 -64 6 -3 14
-2 18 2 148 167 497 621 696 904 186 266 208 368 207 955 -1 204 2 392 6 420
7 48 8 50 47 58 57 12 111 -5 198 -63 124 -83 259 -235 512 -580 359 -488 520
-668 701 -786 184 -121 311 -158 539 -158 189 1 293 17 610 99 116 29 238 59
273 66 50 9 62 15 62 30 0 18 -7 19 -140 13 -135 -7 -143 -6 -226 21 -159 52
-349 193 -543 405 -115 126 -200 226 -390 463 -79 98 -216 254 -304 345 -144
151 -237 267 -237 296 0 6 48 29 108 50 150 56 380 174 489 252 234 168 396
382 452 599 51 195 55 486 8 667 -82 312 -287 573 -543 689 -278 126 -638 130
-971 10 -137 -49 -296 -117 -394 -168 -71 -37 -156 -68 -204 -75 -19 -3 -20 3
-23 210 -1 116 -6 212 -10 211 -4 0 -88 -25 -187 -55z m821 -384 c101 -27 280
-114 366 -179 192 -146 310 -321 368 -545 51 -198 64 -282 64 -431 0 -202 -37
-359 -115 -492 -45 -75 -199 -229 -272 -272 -79 -46 -222 -99 -332 -123 -110
-23 -354 -34 -557 -23 l-148 7 0 312 c0 171 -5 473 -10 671 -12 395 2 968 23
993 65 79 432 128 613 82z"/>
</g>
</svg>
